PathFileType	4	(X/Y/Z)	Patient4_TMGait_0pt6_01_right_45.trc.trc
DataRate	CameraRate	NumFrames	NumMarkers	Units	OrigDataRate	OrigDataStartFrame	OrigNumFrames
80.924855491329	80.924855491329	6	33	mm	80.924855491329	106	       141
Frame#	Time	Sacral			L.Shoulder			Chest			R.Shoulder			Neck			R.ASIS			L.ASIS			R.Thigh.Superior			R.Thigh.Lateral			R.Thigh.Inferior			R.Patella			L.Thigh.Superior			L.Thigh.Lateral			L.Thigh.Inferior			L.Patella			L.Shank.Superior			L.Shank.Lateral			L.Shank.Inferior			R.Shank.Superior			R.Shank.Lateral			R.Shank.Inferior			R.Heel			R.Midfoot.Superior			R.Midfoot.Lateral			R.Toe			L.Heel			L.Midfoot.Lateral			L.Midfoot.Superior			L.Toe			L.Elbow			L.Wrist			R.Elbow			R.Wrist			
		X1	Y1	Z1	X2	Y2	Z2	X3	Y3	Z3	X4	Y4	Z4	X5	Y5	Z5	X6	Y6	Z6	X7	Y7	Z7	X8	Y8	Z8	X9	Y9	Z9	X10	Y10	Z10	X11	Y11	Z11	X12	Y12	Z12	X13	Y13	Z13	X14	Y14	Z14	X15	Y15	Z15	X16	Y16	Z16	X17	Y17	Z17	X18	Y18	Z18	X19	Y19	Z19	X20	Y20	Z20	X21	Y21	Z21	X22	Y22	Z22	X23	Y23	Z23	X24	Y24	Z24	X25	Y25	Z25	X26	Y26	Z26	X27	Y27	Z27	X28	Y28	Z28	X29	Y29	Z29	X30	Y30	Z30	X31	Y31	Z31	X32	Y32	Z32	X33	Y33	Z33	

106	55.407500000000	770.304167284890	1023.685640108909	418.254283745770	959.038709927705	1444.841010681424	232.750471366850	1063.977450297153	1371.222448476148	389.451330604701	987.531512349852	1444.074265709362	566.345106067601	944.445095737023	1502.942364440984	388.089513508792	995.963725635835	953.573722069812	529.087147952036	975.678400931076	963.981114228289	257.117475806775	1082.183041308082	796.307740398651	499.969403727783	1056.780629160062	675.290990114693	579.066314824508	1146.400481311225	641.843154460542	496.796229020677	1176.992819283041	532.559367079149	518.765726281029	1005.586438707090	745.514119527075	291.197988119518	900.774839188771	639.631186651021	237.979242280918	975.602700307923	555.520944541654	302.154723229582	968.749024962041	489.866088879819	315.000789875487	945.184474503953	420.589495832652	309.587437592094	856.131641901968	303.016709406962	267.356890185070	912.574944303415	196.079251764458	341.667065331259	1111.303144530501	449.645582265247	527.475829310532	999.631004977675	391.752196514197	590.736268966770	1000.782213702860	282.261053587695	540.997889182336	811.245028360659	189.024120512714	518.739986430703	987.261048270405	156.903421180217	551.129171254313	880.957049665692	136.414852615354	587.781469279183	1071.047109116946	57.190075364161	571.908128185293	787.604729654520	38.930046246273	394.104305555436	859.330487144869	35.646575345289	311.212413273894	943.649222067492	96.787173577288	333.985934348571	1071.113197084827	42.687701336555	302.896785433944	944.921544117849	1099.656983410892	92.423437839608	1149.224137616971	938.505735556149	95.562972216870	923.204666471188	1098.084059574092	677.778891540111	984.661410305387	843.044341650269	679.644708781138	
107	55.419857142857	769.130506746022	1023.482797013490	417.796114522422	960.173030892900	1443.968393975919	232.155088311336	1064.060707741132	1370.342955377953	389.537048818192	986.904952593233	1443.596656002053	565.908972224116	944.785788938614	1502.366952610133	387.377639339087	994.221340317341	953.356384935598	529.623594622537	974.609911412298	962.927369870785	257.807195811225	1081.449412108752	798.046116453585	500.333552578460	1057.773675775101	676.581013076106	579.517656005510	1147.193561166122	644.071448243935	496.759774491288	1179.932782128700	536.706677533611	518.779407752470	1002.341505001242	744.168127063621	292.857317274943	896.609778536893	639.535840529157	237.983914926238	969.523863847396	554.519862598783	302.954760374495	961.830915480437	489.294112144667	315.533192920910	938.159063776580	420.304847959474	309.917120830087	849.188252037768	302.844010678174	267.217377988490	905.144533578770	195.899985541713	341.902601938976	1118.584334120804	451.631058671320	527.501344126807	1011.089504481386	387.044296047085	591.194958355471	1018.664564104932	277.924223475705	541.075583017081	835.267736928401	173.311972256546	519.118530489527	1012.732153843094	152.058460293191	551.158843523284	908.141328141785	125.352099836909	588.346366535380	1102.517708252515	57.752274886079	572.306511867734	780.092717970920	38.771186653796	394.130508104184	851.778566683083	35.539734299249	311.217170734555	936.039062958074	96.735479398672	334.094095618757	1063.565024253755	42.897849409947	302.968815574243	950.864369291627	1098.993534835366	91.642203385438	1163.796235903642	950.130442899603	95.182443243253	915.035784994926	1099.299192914347	676.898745489070	960.137951949418	840.505326486337	679.075945404344	
108	55.432214285714	768.026248242923	1023.091243115818	417.355737795946	961.372295505159	1442.899576202305	231.730737356164	1064.206425230215	1369.281852756023	389.792665447058	986.320992494793	1442.971395266813	565.619759740432	945.210147834076	1501.622541979273	386.770553839635	992.580552403619	952.853923114223	530.279070031987	973.783247312953	961.868947867316	258.555236144096	1080.356281395570	799.033431484197	500.748667750148	1058.076606523032	677.202663053670	579.987418544909	1147.099711523938	645.356191392154	496.668393702134	1181.794836210708	540.143409358313	518.773722737597	999.269618233022	742.808795672747	294.376714034216	892.629397745939	639.373904611064	237.931405378099	963.698082616992	553.498163970011	303.612901523013	955.224634496669	488.675589385319	315.910426053791	931.343969813321	419.960325309323	310.153271777484	842.393310785421	302.660319103894	266.992036973230	897.793433783922	195.682764776973	342.070338054141	1125.090295079276	453.189948317048	527.570344378562	1022.455404891664	381.877376176303	591.763216281584	1036.756782676141	273.574703124501	541.236470671880	860.647926920991	157.464111588673	519.544651027465	1038.870208292213	147.605996670910	551.279892526442	936.481612969956	114.505191697845	588.956236817213	1134.527904377049	59.292821607761	572.753313112565	772.591922925878	38.632491242830	394.138423457148	844.232360647579	35.427647006923	311.212742555932	928.441059392213	96.673237304761	334.191173430774	1056.028913490989	43.068842902830	303.047031231637	956.778177067030	1098.223381809943	91.033332168256	1177.543924337776	962.072968828040	95.136800884611	906.533114352786	1100.646420532650	676.076861788583	936.673441568291	839.530389462227	678.513839013564	
109	55.444571428571	767.018502451583	1022.534004079199	416.941363086565	962.627612230822	1441.666088315985	231.480069658226	1064.414861528384	1368.077308195465	390.218345023619	985.787976271031	1442.248485491890	565.476618542363	945.707417223504	1500.741981219755	386.264903250477	991.094628697868	952.093873812230	531.041169156769	973.282740018722	960.907156104124	259.318189193950	1078.916701894297	799.238307741722	501.219470896911	1057.649226476120	677.126396663348	580.477123759261	1146.135770230376	645.674561995684	496.569865244620	1182.579481078136	542.821347135795	518.765053884932	996.393589331556	741.449809095058	295.678782478056	888.840777191560	639.156772075667	237.828586575705	958.162390491826	552.470867284204	304.110968892817	948.964268167808	488.012466039954	316.133700387576	924.773387676760	419.561775085659	310.292299560556	835.758908181993	302.482126934818	266.688257264169	890.537475984735	195.435421692458	342.161715543641	1130.760461436711	454.337803707718	527.694270617326	1033.622926296113	376.401646074647	592.405850737079	1054.855922247047	269.405976503372	541.440626522299	887.152061196561	141.898017144146	519.904313022817	1065.375937232689	143.789207611902	551.443918910343	965.661623253777	104.207184625748	589.497175324795	1166.652968188078	61.989483674504	573.197632215729	765.099452552168	38.523412879058	394.126756816216	836.695126809975	35.315755646557	311.196954294101	920.862168165743	96.601386068685	334.269472927705	1048.507131814632	43.188894228768	303.127494460254	962.674638416577	1097.369151515048	90.594051890822	1190.406254337501	974.194271948960	95.419954403831	897.740342402516	1102.213826568364	675.354878339953	914.426553220876	839.926531111659	678.013931277716	
110	55.456928571429	766.139845675694	1021.832345680318	416.567974332539	963.929231829871	1440.306502162821	231.402189169003	1064.684534972799	1366.771239151009	390.809701280944	985.314386230545	1441.476339218124	565.476134302165	946.261585507752	1499.760472585296	385.861724012938	989.812552114593	951.110856225171	531.890696825746	973.161845785347	960.114094963430	260.059592847313	1077.159282980229	798.656180135810	501.757156550562	1056.476221819012	676.347730425363	580.996765180625	1144.352210730225	645.038643422657	496.525196862725	1182.313239394158	544.714399827725	518.777369680307	993.734172449637	740.103409236879	296.717256643995	885.253385144544	638.896479143323	237.690375963156	952.946920457840	551.452207812779	304.449564547179	943.073820437066	487.308420809727	316.219201252995	918.477182176127	419.116516663462	310.341117519815	829.293274455584	302.325615692096	266.323096781898	883.389530660535	195.166021067981	342.175718763919	1135.547785777803	455.092376336820	527.885062508806	1044.455016351569	370.762012993911	593.080227534558	1072.715468504123	265.580202648157	541.645831941901	914.428544456858	127.006520856637	520.080364546660	1091.881994325624	140.787644427840	551.605779780170	995.260510873190	94.737083037896	589.855951751416	1198.406661847885	65.905955836832	573.592124506241	757.613180260245	38.450389299609	394.096533186922	829.169891307048	35.209438542412	311.169087966938	913.308401719275	96.521355480462	334.323660851373	1041.001299249923	43.250698284585	303.206753910600	968.553151451445	1096.461739247205	90.324919287051	1202.339878523542	986.347500563841	96.024504390360	888.753444337594	1104.075477940422	674.777630667059	893.516175489869	841.484825698001	677.634928890425	
111	55.469285714286	765.429354783945	1021.001323647197	416.256790202544	965.263685907952	1438.862682502941	231.493571564903	1065.010771699534	1365.406291490975	391.557778725694	984.907031349813	1440.696581783679	565.613307729336	946.851723660872	1498.711463629978	385.568111147738	988.778166862514	949.943327911702	532.805689643983	973.431074701473	959.517720231489	260.757318004530	1075.132435764069	797.311562391288	502.376365520483	1054.579041670968	674.888597142889	581.561158115975	1141.836703011115	643.495017578554	496.597695438289	1181.052189941260	545.817208009830	518.836216208689	991.313254394911	738.778536793217	297.478676858651	881.878906966877	638.604592907301	237.538002488869	948.073618616143	550.453620014609	304.646146356391	937.566960564105	486.568211242979	316.194329918102	912.479339229101	418.632402025784	310.315288682316	823.000306281312	302.205731080120	265.921487720725	876.358477345531	194.882047668435	342.118564508766	1139.421514158981	455.467971042761	528.150569916334	1054.783250972944	365.088341777962	593.735206527874	1090.047135577372	262.212550036265	541.810288889926	942.003546850786	113.134087453744	519.961443007210	1117.953982864588	138.697842413946	551.728791424288	1024.752862356634	86.299436238635	589.930613116784	1229.247289935184	70.973281429123	573.899322576412	750.132318471303	38.416585950808	394.050273414262	821.659168232018	35.113474817617	311.129908559045	905.784451761062	96.435220966251	334.350880561817	1033.512240633848	43.252169349984	303.282008328047	974.400379811384	1095.535966972122	90.229458988462	1213.321271970385	998.382054038928	96.941643252360	879.711349998438	1106.276534542960	674.386644780260	874.028372039416	843.988396389825	677.434147507767	
